<?xml version="1.0" encoding="UTF-8"?>
<svg version="1.1" xmlns="http://www.w3.org/2000/svg" width="35" height="35">
<path d="M0 0 C4.881441 2.26638332 7.70028068 5.13520912 10 10 C10.76497097 15.16745697 10.80321342 20.1855908 8.4375 24.9375 C5.690185 28.38925474 3.20563099 30.68276463 -1 32 C-5.56189635 32.48530812 -9.63479539 32.4550682 -14 31 C-16.06618749 31.09268505 -16.06618749 31.09268505 -18.1875 31.4375 C-19.445625 31.623125 -20.70375 31.80875 -22 32 C-21.70703125 30.01432292 -21.4140625 28.02864583 -21.12109375 26.04296875 C-20.86095201 23.7974658 -20.86095201 23.7974658 -22 21 C-22.73127952 14.14275595 -22.20583127 9.53398851 -18 4 C-12.81422788 -1.05612782 -6.8480068 -0.92184707 0 0 Z M-16.25 7.6875 C-18.68181232 10.90096628 -19.09850182 14.06750439 -19 18 C-18.14228658 21.24236568 -18.14228658 21.24236568 -17 24 C-17 24.99 -17 25.98 -17 27 C-15.700625 27.2165625 -15.700625 27.2165625 -14.375 27.4375 C-11 28 -11 28 -8.0625 28.75 C-3.09327391 29.15565111 0.3534015 27.12662002 4.375 24.375 C6.84767461 20.76109096 7.29989496 17.3375051 7 13 C5.74121153 8.92652924 3.68402971 6.46097654 0.125 4.0625 C-6.96521356 1.65182739 -10.52635902 3.39476927 -16.25 7.6875 Z " fill="#24D365" transform="translate(22,0)"/>
<path d="M0 0 C2.0625 0.4375 2.0625 0.4375 4 1 C4.12375 2.11375 4.2475 3.2275 4.375 4.375 C4.6465813 8.03103677 4.6465813 8.03103677 7 10 C7.78375 9.835 8.5675 9.67 9.375 9.5 C12.41320245 8.92129477 13.43957492 9.38788051 16 11 C15.67 12.32 15.34 13.64 15 15 C11.13154858 16.13222968 8.80873881 16.22427314 5.3125 14.3125 C2.56025924 12.5223257 0.46341428 11.01291175 -1 8 C-1.25 4.3125 -1.25 4.3125 -1 1 C-0.67 0.67 -0.34 0.34 0 0 Z " fill="#24D365" transform="translate(9,8)"/>
</svg>
