<svg height="35px" width="35px" version="1.1" id="Layer_1" xmlns="http://www.w3.org/2000/svg" xmlns:xlink="http://www.w3.org/1999/xlink" viewBox="0 0 512 512" xml:space="preserve" fill="#000000"><g id="SVGRepo_bgCarrier" stroke-width="0"></g><g id="SVGRepo_tracerCarrier" stroke-linecap="round" stroke-linejoin="round"></g><g id="SVGRepo_iconCarrier"> <path style="fill:#E18C36;" d="M195.567,46.189l-45.703,79.16h108.281l-45.703-79.16C208.692,39.694,199.318,39.694,195.567,46.189z "></path> <path style="fill:#EC8560;" d="M62.841,108.156l23.658,88.292l76.566-76.566L74.772,96.223 C67.528,94.283,60.9,100.912,62.841,108.156z"></path> <path style="fill:#E18C36;" d="M12.805,245.825l79.16,45.704V183.248l-79.16,45.703C6.31,232.7,6.31,242.076,12.805,245.825z"></path> <path style="fill:#EC8560;" d="M74.772,378.553l88.292-23.658l-76.566-76.566L62.841,366.62 C60.9,373.864,67.528,380.494,74.772,378.553z"></path> <path style="fill:#E18C36;" d="M212.441,428.587l45.704-79.16H149.864l45.703,79.16 C199.318,435.082,208.692,435.082,212.441,428.587z"></path> <path style="fill:#EC8560;" d="M345.169,366.62l-23.658-88.292l-76.566,76.566l88.292,23.658 C340.481,380.494,347.11,373.864,345.169,366.62z"></path> <path style="fill:#E18C36;" d="M395.203,228.951l-79.16-45.703v108.281l79.16-45.704C401.699,242.076,401.699,232.7,395.203,228.951 z"></path> <path style="fill:#EC8560;" d="M333.237,96.223l-88.292,23.658l76.566,76.566l23.658-88.292 C347.11,100.912,340.481,94.283,333.237,96.223z"></path> <path style="opacity:0.1;enable-background:new ;" d="M82.023,179.746l4.475,16.701l70.908-70.908 C126.076,133.758,99.378,153.4,82.023,179.746z"></path> <path style="opacity:0.1;enable-background:new ;" d="M74.092,193.567c-8.563,17.312-13.384,36.804-13.384,57.424 c0,8.112,0.752,16.048,2.177,23.747l29.081,16.79V183.248L74.092,193.567z"></path> <path style="opacity:0.1;enable-background:new ;" d="M86.498,278.329l-9.53,35.568c11.781,21.199,29.329,38.747,50.528,50.528 l35.568-9.53L86.498,278.329z"></path> <path style="opacity:0.1;enable-background:new ;" d="M149.864,349.427l16.79,29.081c7.699,1.425,15.635,2.177,23.747,2.177 c20.621,0,40.114-4.821,57.426-13.384l10.319-17.874H149.864V349.427z"></path> <path style="opacity:0.1;enable-background:new ;" d="M244.945,354.895l16.701,4.475c26.347-17.355,45.989-44.052,54.208-75.383 L244.945,354.895z"></path> <circle style="fill:#F7D64C;" cx="204.007" cy="237.393" r="129.693"></circle> <path style="opacity:0.3;fill:#FFFFFF;enable-background:new ;" d="M228.916,110.095c-3.945,7.806-6.182,16.623-6.182,25.967 c0,31.847,25.817,57.665,57.665,57.665c15.109,0,28.855-5.818,39.136-15.328C301.695,143.525,268.524,117.803,228.916,110.095z"></path> <path style="fill:#D5EBEF;" d="M467.18,325.587c0.399-2.621,0.606-5.306,0.606-8.039c0-29.325-23.773-53.098-53.098-53.098 c-6.181,0-12.11,1.067-17.628,3.01c-16.017-27.864-46.079-46.627-80.525-46.627c-41.285,0-76.268,26.958-88.322,64.23 c-50.886,0.437-92.004,41.816-92.004,92.804c0,51.26,41.555,92.815,92.815,92.815h196.525c43.364,0,78.517-35.154,78.517-78.517 C504.066,364.094,489.332,339.469,467.18,325.587z"></path> <path style="opacity:0.1;enable-background:new ;" d="M443.427,452.805H246.902c-51.26,0-92.815-41.555-92.815-92.815 c0-13.72,1.386-28.36,4.399-42.441c-13.886,16.222-22.276,37.289-22.276,60.319c0,51.26,41.555,92.815,92.815,92.815h196.525 c26.245,0,49.479-12.879,63.736-32.659C476.382,447.323,460.545,452.805,443.427,452.805z"></path> <path d="M475.582,321.658c0.091-1.369,0.138-2.742,0.138-4.11c0-33.653-27.378-61.032-61.032-61.032 c-4.755,0-9.46,0.549-14.054,1.637c-1.011-1.529-2.068-3.018-3.155-4.481l1.691-0.976c5.534-3.196,8.837-8.918,8.837-15.308 s-3.304-12.112-8.837-15.308l-66.089-38.157l19.751-73.713c1.653-6.173-0.056-12.556-4.575-17.075 c-4.518-4.518-10.902-6.229-17.074-4.575l-73.713,19.752l-38.157-66.089c-3.195-5.534-8.918-8.838-15.307-8.838 c-0.001,0,0,0-0.001,0c-6.389,0-12.113,3.305-15.308,8.838l-38.157,66.089L76.826,88.56c-6.172-1.653-12.556,0.056-17.074,4.575 c-4.519,4.518-6.23,10.901-4.575,17.075l19.752,73.713L8.839,222.08C3.305,225.275,0,230.998,0,237.388 c0,6.39,3.305,12.113,8.838,15.308l66.089,38.157l-19.751,73.714c-1.653,6.173,0.056,12.555,4.575,17.074 c3.385,3.385,7.814,5.194,12.419,5.194c1.543,0,3.106-0.203,4.655-0.619l51.6-13.826c-0.097,1.817-0.15,3.643-0.15,5.478 c0,55.553,45.196,100.749,100.749,100.749h196.525c47.67,0,86.451-38.782,86.451-86.451 C512,363.885,498.477,337.887,475.582,321.658z M16.772,238.954c-0.748-0.432-0.904-1.09-0.904-1.567 c0-0.476,0.157-1.135,0.904-1.566l53.478-30.876c-2.524,10.407-3.873,21.269-3.873,32.442c0,11.069,1.348,21.955,3.908,32.462 L16.772,238.954z M391.237,235.822c0.748,0.432,0.903,1.09,0.903,1.566c0,0.477-0.157,1.135-0.903,1.567l-4.413,2.548 c-13.008-12.636-29.246-21.584-46.912-25.823c-0.573-3.625-1.284-7.201-2.131-10.72L391.237,235.822z M335.29,103.888 c0.836-0.222,1.41,0.131,1.747,0.468c0.336,0.336,0.692,0.913,0.468,1.748l-15.965,59.584c-11.443-18.74-27.213-34.45-45.861-45.826 L335.29,103.888z M202.438,50.156c0.432-0.748,1.091-0.904,1.567-0.904s1.135,0.157,1.566,0.904l30.865,53.46 c-10.421-2.518-21.284-3.854-32.432-3.854c-11.172,0-22.034,1.348-32.442,3.873L202.438,50.156z M70.504,106.103 c-0.223-0.835,0.131-1.41,0.468-1.748c0.337-0.336,0.916-0.691,1.747-0.468l59.702,15.998c-18.706,11.438-34.482,27.214-45.92,45.92 L70.504,106.103z M130.799,355.327l-58.08,15.562c-0.836,0.226-1.41-0.131-1.748-0.468c-0.336-0.336-0.692-0.913-0.468-1.747 l16.005-59.733c11.003,18.068,26.158,33.629,44.579,45.161C130.99,354.509,130.892,354.917,130.799,355.327z M82.246,237.389 c0-67.138,54.621-121.759,121.759-121.759c58.394,0,108.009,41.258,119.331,97.508c-2.255-0.153-4.522-0.238-6.8-0.238 c-41.975,0-79.067,25.667-93.998,64.431c-24.614,1.556-47.533,11.941-65.04,29.59c-9.172,9.245-16.33,19.961-21.27,31.608 C102.715,316.022,82.246,278.09,82.246,237.389z M425.549,462.749H229.024c-46.804,0-84.881-38.077-84.881-84.881 c0-46.401,37.744-84.474,84.138-84.872c3.416-0.029,6.43-2.242,7.481-5.491c11.362-35.132,43.823-58.737,80.772-58.737 c30.305,0,58.525,16.342,73.646,42.647c1.906,3.315,5.906,4.799,9.513,3.53c4.825-1.698,9.869-2.559,14.994-2.559 c24.904,0,45.164,20.26,45.164,45.164c0,2.29-0.173,4.594-0.516,6.847c-0.475,3.126,0.952,6.236,3.632,7.915 c20.767,13.013,33.166,35.388,33.166,59.854C496.132,431.085,464.469,462.749,425.549,462.749z M351.441,377.243 c-4.382,0-7.934,3.552-7.934,7.934c0,4.256-3.462,7.718-7.718,7.718c-4.256,0-7.718-3.462-7.718-7.718 c0-4.382-3.552-7.934-7.934-7.934c-4.382,0-7.934,3.552-7.934,7.934c0,4.256-3.462,7.718-7.718,7.718s-7.718-3.462-7.718-7.718 c0-4.382-3.552-7.934-7.934-7.934s-7.934,3.552-7.934,7.934c0,13.005,10.581,23.586,23.586,23.586c6,0,11.485-2.252,15.652-5.956 c4.167,3.704,9.652,5.956,15.652,5.956c13.005,0,23.586-10.581,23.586-23.586C359.375,380.796,355.823,377.243,351.441,377.243z M392.432,345.754c-9.599,0-17.408,7.809-17.408,17.408c0,4.382,3.552,7.934,7.934,7.934s7.934-3.552,7.934-7.934 c0-0.849,0.691-1.54,1.54-1.54c0.849,0,1.54,0.691,1.54,1.54c0,4.382,3.552,7.934,7.934,7.934s7.934-3.552,7.934-7.934 C409.84,353.563,402.031,345.754,392.432,345.754z M262.744,187.03c0.778,3.747,4.079,6.323,7.76,6.323 c0.534,0,1.077-0.054,1.621-0.167c4.291-0.891,7.046-5.09,6.157-9.381l-1.402-6.754c-0.891-4.291-5.091-7.044-9.381-6.157 c-4.291,0.891-7.046,5.09-6.157,9.381L262.744,187.03z M247.843,346.232c-4.382,0-7.934,3.552-7.934,7.934v8.956 c0,4.382,3.552,7.934,7.934,7.934s7.934-3.552,7.934-7.934v-8.956C255.777,349.785,252.225,346.232,247.843,346.232z M186.082,251.902c1.623,0,3.269-0.165,4.919-0.508c6.117-1.269,11.214-4.759,14.626-9.453c4.998,2.947,11.063,4.119,17.18,2.852 c13.053-2.709,21.467-15.532,18.759-28.584c-0.891-4.291-5.094-7.046-9.381-6.157c-4.291,0.891-7.046,5.09-6.157,9.381 c0.452,2.173,0.029,4.391-1.189,6.247c-1.218,1.855-3.085,3.125-5.258,3.576c-2.174,0.452-4.392,0.029-6.247-1.189 c-1.855-1.218-3.125-3.085-3.576-5.258c-0.891-4.291-5.091-7.043-9.381-6.157c-3.746,0.778-6.323,4.078-6.323,7.757 c0,0.535,0.054,1.079,0.167,1.623c0.931,4.485-1.961,8.892-6.446,9.823c-4.486,0.934-8.892-1.96-9.823-6.446 c-0.891-4.291-5.092-7.044-9.381-6.157c-4.291,0.891-7.046,5.09-6.157,9.381C164.783,244.039,174.867,251.902,186.082,251.902z M129.973,207.539c-0.891-4.291-5.091-7.043-9.381-6.157c-4.291,0.891-7.046,5.09-6.157,9.381l1.402,6.754 c0.778,3.747,4.079,6.324,7.76,6.324c0.534,0,1.077-0.054,1.621-0.167c4.291-0.891,7.046-5.09,6.157-9.381L129.973,207.539z"></path> </g></svg>